<?xml version="1.0" encoding="UTF-8" standalone="no"?><!DOCTYPE svg PUBLIC "-//W3C//DTD SVG 1.1//EN" "http://www.w3.org/Graphics/SVG/1.1/DTD/svg11.dtd"><svg width="100%" height="100%" viewBox="0 0 102 90" version="1.1" xmlns="http://www.w3.org/2000/svg" xmlns:xlink="http://www.w3.org/1999/xlink" xml:space="preserve" xmlns:serif="http://www.serif.com/" style="fill-rule:evenodd;clip-rule:evenodd;stroke-linejoin:round;stroke-miterlimit:1.41421;"><g id="Version-1-plain" serif:id="Version 1 plain"><g transform="matrix(3.03266,-5.54791e-32,1.10958e-31,2.19378,-861.414,-662.891)"><clipPath id="_clip1"><path d="M290.325,302.254l10.425,26.123l10.571,-26.123l6.226,0l-16.919,40.527l-16.529,-40.527l6.226,0Z" clip-rule="nonzero"/></clipPath><g clip-path="url(#_clip1)"><path d="M290.325,302.254l10.425,26.123l10.571,-26.123l6.226,0l-16.919,40.527l-16.529,-40.527l6.226,0Z" style="fill:url(#_Linear2);fill-rule:nonzero;"/><g transform="matrix(-1,-1.22465e-16,1.22465e-16,-1,601.646,645.035)"><g transform="matrix(50,0,0,50,283.904,339.949)"><path d="M0.128,-0.754l0.209,0.523l0.211,-0.523l0.125,0l-0.339,0.811l-0.33,-0.811l0.124,0Z" style="fill:#fff;fill-rule:nonzero;"/></g></g></g></g><path d="M82.717,89.094l-31.615,-57.308l-32.059,57.308l-18.88,0l51.309,-88.908l50.125,88.908l-18.88,0Z" style="fill:url(#_Linear3);fill-rule:nonzero;"/></g><defs><linearGradient id="_Linear2" x1="0" y1="0" x2="1" y2="0" gradientUnits="userSpaceOnUse" gradientTransform="matrix(2.07057e-15,33.8149,-33.8149,2.07057e-15,300.618,306.247)"><stop offset="0" style="stop-color:#ff7c7c;stop-opacity:1"/><stop offset="1" style="stop-color:#d60000;stop-opacity:1"/></linearGradient><linearGradient id="_Linear3" x1="0" y1="0" x2="1" y2="0" gradientUnits="userSpaceOnUse" gradientTransform="matrix(-5.37805e-14,88.9079,-88.9079,-5.37805e-14,50.88,0.186032)"><stop offset="0" style="stop-color:#d5d5d5;stop-opacity:1"/><stop offset="1" style="stop-color:#f7f7f7;stop-opacity:1"/></linearGradient></defs></svg>